<svg xmlns="http://www.w3.org/2000/svg" viewBox="0 0 720 330" font-family="'Inter','Helvetica Neue',Arial,sans-serif">
  <rect width="720" height="330" fill="#f5f3ee"/>

  <text x="360" y="28" text-anchor="middle" fill="#2d3b55" font-size="13" font-weight="700" letter-spacing="0.5">Lemmatization examples across varieties</text>

  <!-- ── Left: Lookup (medium blue, matches diagram) ── -->
  <rect x="20" y="46" width="330" height="18" rx="1" fill="#4a7a9c"/>
  <text x="185" y="59" text-anchor="middle" fill="#fff" font-size="10" font-weight="600">LOOKUP TABLE</text>

  <text x="32" y="82" fill="#8a8279" font-size="9">FORM</text>
  <text x="290" y="82" fill="#8a8279" font-size="9">VARIETY</text>
  <line x1="28" y1="87" x2="344" y2="87" stroke="#c4b99a" stroke-width="0.5"/>

  <!-- Subtle row lines -->
  <line x1="28" y1="110" x2="344" y2="110" stroke="#e0ddd6" stroke-width="0.5"/>
  <line x1="28" y1="132" x2="344" y2="132" stroke="#e0ddd6" stroke-width="0.5"/>
  <line x1="28" y1="154" x2="344" y2="154" stroke="#e0ddd6" stroke-width="0.5"/>
  <line x1="28" y1="176" x2="344" y2="176" stroke="#e0ddd6" stroke-width="0.5"/>
  <line x1="28" y1="198" x2="344" y2="198" stroke="#e0ddd6" stroke-width="0.5"/>
  <line x1="28" y1="220" x2="344" y2="220" stroke="#e0ddd6" stroke-width="0.5"/>
  <line x1="28" y1="242" x2="344" y2="242" stroke="#e0ddd6" stroke-width="0.5"/>
  <line x1="380" y1="110" x2="694" y2="110" stroke="#e0ddd6" stroke-width="0.5"/>
  <line x1="380" y1="132" x2="694" y2="132" stroke="#e0ddd6" stroke-width="0.5"/>
  <line x1="380" y1="154" x2="694" y2="154" stroke="#e0ddd6" stroke-width="0.5"/>
  <line x1="380" y1="176" x2="694" y2="176" stroke="#e0ddd6" stroke-width="0.5"/>
  <line x1="380" y1="198" x2="694" y2="198" stroke="#e0ddd6" stroke-width="0.5"/>
  <line x1="380" y1="236" x2="694" y2="236" stroke="#e0ddd6" stroke-width="0.5"/>

  <text x="32" y="106" fill="#1a2744" font-size="12">θεοί</text>
  <text x="120" y="106" fill="#b8af9a" font-size="11">&#x2192;</text>
  <text x="140" y="106" fill="#1a2744" font-size="12" font-weight="600">θεός</text>
  <text x="290" y="106" fill="#6b6560" font-size="10">Epic</text>

  <text x="32" y="128" fill="#1a2744" font-size="12">ἐποίησεν</text>
  <text x="120" y="128" fill="#b8af9a" font-size="11">&#x2192;</text>
  <text x="140" y="128" fill="#1a2744" font-size="12" font-weight="600">ποιέω</text>
  <text x="290" y="128" fill="#6b6560" font-size="10">Attic</text>

  <text x="32" y="150" fill="#1a2744" font-size="12">πολεμούσαν</text>
  <text x="120" y="150" fill="#b8af9a" font-size="11">&#x2192;</text>
  <text x="140" y="150" fill="#1a2744" font-size="12" font-weight="600">πολεμώ</text>
  <text x="290" y="150" fill="#6b6560" font-size="10">SMG</text>

  <text x="32" y="172" fill="#1a2744" font-size="12">μήνιδος</text>
  <text x="120" y="172" fill="#b8af9a" font-size="11">&#x2192;</text>
  <text x="140" y="172" fill="#1a2744" font-size="12" font-weight="600">μῆνις</text>
  <text x="290" y="172" fill="#6b6560" font-size="10">Epic</text>

  <text x="32" y="194" fill="#1a2744" font-size="12">ἐβασίλευσεν</text>
  <text x="120" y="194" fill="#b8af9a" font-size="11">&#x2192;</text>
  <text x="140" y="194" fill="#1a2744" font-size="12" font-weight="600">βασιλεύω</text>
  <text x="290" y="194" fill="#6b6560" font-size="10">Koine</text>

  <text x="32" y="216" fill="#1a2744" font-size="12">κοπέλλα</text>
  <text x="120" y="216" fill="#b8af9a" font-size="11">&#x2192;</text>
  <text x="140" y="216" fill="#1a2744" font-size="12" font-weight="600">κοπέλα</text>
  <text x="290" y="216" fill="#6b6560" font-size="10">Cypriot</text>

  <text x="32" y="238" fill="#1a2744" font-size="12">τρομερό</text>
  <text x="120" y="238" fill="#b8af9a" font-size="11">&#x2192;</text>
  <text x="140" y="238" fill="#1a2744" font-size="12" font-weight="600">τρομερός</text>
  <text x="290" y="238" fill="#6b6560" font-size="10">SMG</text>

  <text x="185" y="264" text-anchor="middle" fill="#4a7a9c" font-size="9.5" font-style="italic">12.5M forms indexed, instant</text>

  <!-- divider -->
  <line x1="362" y1="46" x2="362" y2="278" stroke="#c4b99a" stroke-width="0.5"/>

  <!-- ── Right: Transformer (darker blue, matches diagram) ── -->
  <rect x="374" y="46" width="326" height="18" rx="1" fill="#2d5a7a"/>
  <text x="537" y="59" text-anchor="middle" fill="#fff" font-size="10" font-weight="600">TRANSFORMER (unseen forms)</text>

  <text x="386" y="82" fill="#8a8279" font-size="9">FORM</text>
  <text x="630" y="82" fill="#8a8279" font-size="9">PATTERN</text>
  <line x1="380" y1="87" x2="694" y2="87" stroke="#c4b99a" stroke-width="0.5"/>

  <text x="386" y="106" fill="#1a2744" font-size="12">εσκότωσε</text>
  <text x="478" y="106" fill="#b8af9a" font-size="11">&#x2192;</text>
  <text x="498" y="106" fill="#2d5a7a" font-size="12" font-weight="600">σκοτώνω</text>
  <text x="630" y="106" fill="#6b6560" font-size="9">augment strip</text>

  <text x="386" y="128" fill="#1a2744" font-size="12">εφώναξε</text>
  <text x="478" y="128" fill="#b8af9a" font-size="11">&#x2192;</text>
  <text x="498" y="128" fill="#2d5a7a" font-size="12" font-weight="600">φωνάζω</text>
  <text x="630" y="128" fill="#6b6560" font-size="9">-αξε &#x2192; -άζω</text>

  <text x="386" y="150" fill="#1a2744" font-size="12">εσήκωσε</text>
  <text x="478" y="150" fill="#b8af9a" font-size="11">&#x2192;</text>
  <text x="498" y="150" fill="#2d5a7a" font-size="12" font-weight="600">σηκώνω</text>
  <text x="630" y="150" fill="#6b6560" font-size="9">-ωσε &#x2192; -ώνω</text>

  <text x="386" y="172" fill="#1a2744" font-size="12">ανδρειωμένων</text>
  <text x="478" y="172" fill="#b8af9a" font-size="11">&#x2192;</text>
  <text x="498" y="172" fill="#2d5a7a" font-size="12" font-weight="600">ανδρειωμένος</text>
  <text x="630" y="172" fill="#6b6560" font-size="9">gen.pl &#x2192; nom</text>

  <text x="386" y="194" fill="#1a2744" font-size="12">εξηγήσεων</text>
  <text x="478" y="194" fill="#b8af9a" font-size="11">&#x2192;</text>
  <text x="498" y="194" fill="#2d5a7a" font-size="12" font-weight="600">εξήγηση</text>
  <text x="630" y="194" fill="#6b6560" font-size="9">Kath. gen.pl</text>

  <text x="386" y="216" fill="#1a2744" font-size="12">διεπραγματεύθη</text>
  <text x="386" y="232" fill="#2d5a7a" font-size="12" font-weight="600">&#x2192; διαπραγματεύομαι</text>
  <text x="630" y="224" fill="#6b6560" font-size="9">Kath. aor. pass.</text>

  <text x="537" y="264" text-anchor="middle" fill="#2d5a7a" font-size="9.5" font-style="italic">4M params, PyTorch or ONNX</text>

  <!-- Footer -->
  <line x1="28" y1="288" x2="694" y2="288" stroke="#c4b99a" stroke-width="0.5"/>
  <text x="360" y="310" text-anchor="middle" fill="#8a8279" font-size="9.5">Lookup resolves 95%+ of known forms. Transformer generalizes to novel inflections and cross-period morphology.</text>
</svg>
